<svg xmlns="http://www.w3.org/2000/svg" viewBox="0 0 900 580" font-family="system-ui, -apple-system, sans-serif">
  <defs>
    <linearGradient id="hdr" x1="0%" y1="0%" x2="100%" y2="0%">
      <stop offset="0%" style="stop-color:#1e293b"/>
      <stop offset="100%" style="stop-color:#334155"/>
    </linearGradient>
    <linearGradient id="bar1" x1="0%" y1="0%" x2="100%" y2="0%">
      <stop offset="0%" style="stop-color:#22c55e"/>
      <stop offset="100%" style="stop-color:#16a34a"/>
    </linearGradient>
    <linearGradient id="bar2" x1="0%" y1="0%" x2="100%" y2="0%">
      <stop offset="0%" style="stop-color:#3b82f6"/>
      <stop offset="100%" style="stop-color:#2563eb"/>
    </linearGradient>
    <linearGradient id="bar3" x1="0%" y1="0%" x2="100%" y2="0%">
      <stop offset="0%" style="stop-color:#f59e0b"/>
      <stop offset="100%" style="stop-color:#d97706"/>
    </linearGradient>
    <linearGradient id="bar4" x1="0%" y1="0%" x2="100%" y2="0%">
      <stop offset="0%" style="stop-color:#8b5cf6"/>
      <stop offset="100%" style="stop-color:#7c3aed"/>
    </linearGradient>
    <filter id="sh">
      <feDropShadow dx="0" dy="2" stdDeviation="3" flood-opacity="0.08"/>
    </filter>
  </defs>
  <rect width="900" height="580" rx="12" fill="#fafafa"/>
  <rect x="0" y="0" width="900" height="56" rx="12" fill="url(#hdr)"/>
  <rect x="0" y="20" width="900" height="36" fill="url(#hdr)"/>
  <text x="450" y="36" text-anchor="middle" fill="white" font-size="20" font-weight="700">TreeDex Benchmark Results</text>
  <text x="450" y="78" text-anchor="middle" fill="#64748b" font-size="11" font-weight="400">Document: synthetic (15 pages)  |  Generated: 2026-03-01 02:14 UTC</text>
  <rect x="30" y="98" width="395" height="100" rx="10" fill="white" stroke="#e2e8f0" stroke-width="1" filter="url(#sh)"/>
  <rect x="30" y="98" width="6" height="100" rx="3" fill="url(#bar1)"/>
  <text x="54" y="126" text-anchor="start" fill="#64748b" font-size="12" font-weight="600">Build Time</text>
  <text x="54" y="158" text-anchor="start" fill="#1e293b" font-size="28" font-weight="800">0.1 ms</text>
  <text x="54" y="180" text-anchor="start" fill="#94a3b8" font-size="11" font-weight="400">Time to build tree index from pages</text>
  <rect x="445" y="98" width="395" height="100" rx="10" fill="white" stroke="#e2e8f0" stroke-width="1" filter="url(#sh)"/>
  <rect x="445" y="98" width="6" height="100" rx="3" fill="url(#bar2)"/>
  <text x="469" y="126" text-anchor="start" fill="#64748b" font-size="12" font-weight="600">Index Size</text>
  <text x="469" y="158" text-anchor="start" fill="#1e293b" font-size="28" font-weight="800">30.9 KB</text>
  <text x="469" y="180" text-anchor="start" fill="#94a3b8" font-size="11" font-weight="400">JSON index size on disk</text>
  <rect x="30" y="218" width="395" height="100" rx="10" fill="white" stroke="#e2e8f0" stroke-width="1" filter="url(#sh)"/>
  <rect x="30" y="218" width="6" height="100" rx="3" fill="url(#bar3)"/>
  <text x="54" y="246" text-anchor="start" fill="#64748b" font-size="12" font-weight="600">Retrieval Accuracy</text>
  <text x="54" y="278" text-anchor="start" fill="#1e293b" font-size="28" font-weight="800">100%</text>
  <text x="54" y="300" text-anchor="start" fill="#94a3b8" font-size="11" font-weight="400">10 synthetic queries evaluated</text>
  <rect x="445" y="218" width="395" height="100" rx="10" fill="white" stroke="#e2e8f0" stroke-width="1" filter="url(#sh)"/>
  <rect x="445" y="218" width="6" height="100" rx="3" fill="url(#bar4)"/>
  <text x="469" y="246" text-anchor="start" fill="#64748b" font-size="12" font-weight="600">Tree Nodes</text>
  <text x="469" y="278" text-anchor="start" fill="#1e293b" font-size="28" font-weight="800">14</text>
  <text x="469" y="300" text-anchor="start" fill="#94a3b8" font-size="11" font-weight="400">29,611 chars across all nodes</text>
  <rect x="30" y="358" width="840" height="220" rx="10" fill="white" stroke="#e2e8f0" stroke-width="1" filter="url(#sh)"/>
  <text x="450" y="382" text-anchor="middle" fill="#1e293b" font-size="14" font-weight="700">Per-Query Retrieval Accuracy</text>
  <text x="48" y="410" text-anchor="start" fill="#475569" font-size="10" font-weight="400">What is the motivation for this research...</text>
  <rect x="350" y="398" width="380" height="16" rx="3" fill="url(#bar3)"/>
  <text x="738" y="410" text-anchor="start" fill="#d97706" font-size="10" font-weight="700">100%</text>
  <text x="48" y="429" text-anchor="start" fill="#475569" font-size="10" font-weight="400">How was the data collected?</text>
  <rect x="350" y="417" width="380" height="16" rx="3" fill="url(#bar3)"/>
  <text x="738" y="429" text-anchor="start" fill="#d97706" font-size="10" font-weight="700">100%</text>
  <text x="48" y="448" text-anchor="start" fill="#475569" font-size="10" font-weight="400">Describe the model architecture.</text>
  <rect x="350" y="436" width="380" height="16" rx="3" fill="url(#bar3)"/>
  <text x="738" y="448" text-anchor="start" fill="#d97706" font-size="10" font-weight="700">100%</text>
  <text x="48" y="467" text-anchor="start" fill="#475569" font-size="10" font-weight="400">What attention mechanism was used?</text>
  <rect x="350" y="455" width="380" height="16" rx="3" fill="url(#bar3)"/>
  <text x="738" y="467" text-anchor="start" fill="#d97706" font-size="10" font-weight="700">100%</text>
  <text x="48" y="486" text-anchor="start" fill="#475569" font-size="10" font-weight="400">What are the quantitative results?</text>
  <rect x="350" y="474" width="380" height="16" rx="3" fill="url(#bar3)"/>
  <text x="738" y="486" text-anchor="start" fill="#d97706" font-size="10" font-weight="700">100%</text>
  <text x="48" y="505" text-anchor="start" fill="#475569" font-size="10" font-weight="400">What are the limitations of this work?</text>
  <rect x="350" y="493" width="380" height="16" rx="3" fill="url(#bar3)"/>
  <text x="738" y="505" text-anchor="start" fill="#d97706" font-size="10" font-weight="700">100%</text>
  <text x="48" y="524" text-anchor="start" fill="#475569" font-size="10" font-weight="400">What future work is planned?</text>
  <rect x="350" y="512" width="380" height="16" rx="3" fill="url(#bar3)"/>
  <text x="738" y="524" text-anchor="start" fill="#d97706" font-size="10" font-weight="700">100%</text>
  <text x="48" y="543" text-anchor="start" fill="#475569" font-size="10" font-weight="400">What preprocessing steps were applied?</text>
  <rect x="350" y="531" width="380" height="16" rx="3" fill="url(#bar3)"/>
  <text x="738" y="543" text-anchor="start" fill="#d97706" font-size="10" font-weight="700">100%</text>
  <text x="48" y="562" text-anchor="start" fill="#475569" font-size="10" font-weight="400">Provide a qualitative analysis of the re...</text>
  <rect x="350" y="550" width="380" height="16" rx="3" fill="url(#bar3)"/>
  <text x="738" y="562" text-anchor="start" fill="#d97706" font-size="10" font-weight="700">100%</text>
  <text x="48" y="581" text-anchor="start" fill="#475569" font-size="10" font-weight="400">Give an overview of the background.</text>
  <rect x="350" y="569" width="380" height="16" rx="3" fill="url(#bar3)"/>
  <text x="738" y="581" text-anchor="start" fill="#d97706" font-size="10" font-weight="700">100%</text>
  <rect x="30" y="544" width="840" height="26" rx="6" fill="#f0fdf4" stroke="#bbf7d0" stroke-width="1"/>
  <text x="450" y="561" text-anchor="middle" fill="#16a34a" font-size="11" font-weight="600">Avg 2,115 chars/node  |  14 nodes  |  30.9 KB index  |  0.1 ms build</text>
</svg>